<mxfile host="app.diagrams.net" agent="Mozilla/5.0 (Windows NT 10.0; Win64; x64) AppleWebKit/537.36 (KHTML, like Gecko) Chrome/136.0.0.0 Safari/537.36 Edg/136.0.0.0" version="26.2.14">
  <diagram name="第 1 页" id="ZbcOY65-sDuQXQ3uLkRv">
    <mxGraphModel dx="2327" dy="1995" grid="1" gridSize="10" guides="1" tooltips="1" connect="1" arrows="1" fold="1" page="1" pageScale="1" pageWidth="827" pageHeight="1169" math="0" shadow="0">
      <root>
        <mxCell id="0" />
        <mxCell id="1" parent="0" />
        <mxCell id="wmgBXDKQRaq-loNeCHvl-1" value="" style="rounded=0;whiteSpace=wrap;html=1;" parent="1" vertex="1">
          <mxGeometry x="-260" y="-40" width="900" height="790" as="geometry" />
        </mxCell>
        <mxCell id="wmgBXDKQRaq-loNeCHvl-4" value="" style="rounded=1;whiteSpace=wrap;html=1;" parent="1" vertex="1">
          <mxGeometry x="-130" y="600" width="690" height="120" as="geometry" />
        </mxCell>
        <mxCell id="wmgBXDKQRaq-loNeCHvl-5" value="" style="rounded=1;whiteSpace=wrap;html=1;" parent="1" vertex="1">
          <mxGeometry x="-130" y="450" width="690" height="90" as="geometry" />
        </mxCell>
        <mxCell id="wmgBXDKQRaq-loNeCHvl-6" value="" style="rounded=1;whiteSpace=wrap;html=1;" parent="1" vertex="1">
          <mxGeometry x="-130" y="310" width="690" height="83" as="geometry" />
        </mxCell>
        <mxCell id="wmgBXDKQRaq-loNeCHvl-7" value="" style="rounded=1;whiteSpace=wrap;html=1;" parent="1" vertex="1">
          <mxGeometry x="-130" y="171" width="690" height="80" as="geometry" />
        </mxCell>
        <mxCell id="wmgBXDKQRaq-loNeCHvl-8" value="" style="rounded=1;whiteSpace=wrap;html=1;" parent="1" vertex="1">
          <mxGeometry x="-130" y="-7" width="690" height="120" as="geometry" />
        </mxCell>
        <mxCell id="wmgBXDKQRaq-loNeCHvl-9" value="&lt;font style=&quot;font-size: 18px;&quot;&gt;设备端&lt;/font&gt;" style="text;html=1;align=center;verticalAlign=middle;whiteSpace=wrap;rounded=0;" parent="1" vertex="1">
          <mxGeometry x="-230" y="645" width="60" height="30" as="geometry" />
        </mxCell>
        <mxCell id="wmgBXDKQRaq-loNeCHvl-10" value="&lt;font style=&quot;font-size: 18px;&quot;&gt;边缘端&lt;/font&gt;" style="text;html=1;align=center;verticalAlign=middle;whiteSpace=wrap;rounded=0;" parent="1" vertex="1">
          <mxGeometry x="-231" y="480" width="60" height="30" as="geometry" />
        </mxCell>
        <mxCell id="wmgBXDKQRaq-loNeCHvl-11" value="&lt;font style=&quot;font-size: 18px;&quot;&gt;云端&lt;/font&gt;" style="text;html=1;align=center;verticalAlign=middle;whiteSpace=wrap;rounded=0;" parent="1" vertex="1">
          <mxGeometry x="-230" y="336.5" width="60" height="30" as="geometry" />
        </mxCell>
        <mxCell id="wmgBXDKQRaq-loNeCHvl-12" value="&lt;font style=&quot;font-size: 18px;&quot;&gt;后端&lt;/font&gt;" style="text;html=1;align=center;verticalAlign=middle;whiteSpace=wrap;rounded=0;" parent="1" vertex="1">
          <mxGeometry x="-231" y="198.5" width="60" height="30" as="geometry" />
        </mxCell>
        <mxCell id="wmgBXDKQRaq-loNeCHvl-13" value="&lt;font style=&quot;font-size: 18px;&quot;&gt;前端&lt;/font&gt;" style="text;html=1;align=center;verticalAlign=middle;whiteSpace=wrap;rounded=0;" parent="1" vertex="1">
          <mxGeometry x="-230" y="38" width="60" height="30" as="geometry" />
        </mxCell>
        <mxCell id="wmgBXDKQRaq-loNeCHvl-17" value="&lt;font style=&quot;font-size: 18px;&quot; face=&quot;Helvetica&quot;&gt;火焰传感器&lt;/font&gt;" style="rounded=1;whiteSpace=wrap;html=1;" parent="1" vertex="1">
          <mxGeometry x="-65" y="666.25" width="150" height="45" as="geometry" />
        </mxCell>
        <mxCell id="wmgBXDKQRaq-loNeCHvl-18" value="&lt;font style=&quot;&quot;&gt;&lt;font style=&quot;font-size: 18px;&quot;&gt;温湿度传感器&lt;/font&gt;&lt;/font&gt;" style="rounded=1;whiteSpace=wrap;html=1;" parent="1" vertex="1">
          <mxGeometry x="-65" y="610" width="150" height="45" as="geometry" />
        </mxCell>
        <mxCell id="wmgBXDKQRaq-loNeCHvl-20" value="&lt;font style=&quot;font-size: 18px;&quot; face=&quot;Helvetica&quot;&gt;光敏电阻传感器&lt;/font&gt;" style="rounded=1;whiteSpace=wrap;html=1;" parent="1" vertex="1">
          <mxGeometry x="145" y="611.25" width="150" height="45" as="geometry" />
        </mxCell>
        <mxCell id="wmgBXDKQRaq-loNeCHvl-21" value="&lt;font style=&quot;font-size: 18px;&quot; face=&quot;Helvetica&quot;&gt;蜂鸣器&lt;/font&gt;" style="rounded=1;whiteSpace=wrap;html=1;" parent="1" vertex="1">
          <mxGeometry x="350" y="611.25" width="150" height="45" as="geometry" />
        </mxCell>
        <mxCell id="wmgBXDKQRaq-loNeCHvl-22" value="&lt;font style=&quot;font-size: 18px;&quot; face=&quot;Helvetica&quot;&gt;人体红外传感器&lt;/font&gt;" style="rounded=1;whiteSpace=wrap;html=1;" parent="1" vertex="1">
          <mxGeometry x="350" y="666.25" width="150" height="45" as="geometry" />
        </mxCell>
        <mxCell id="wmgBXDKQRaq-loNeCHvl-23" value="&lt;font style=&quot;font-size: 18px;&quot; face=&quot;Helvetica&quot;&gt;LED三色灯模块&lt;/font&gt;" style="rounded=1;whiteSpace=wrap;html=1;" parent="1" vertex="1">
          <mxGeometry x="145" y="666.25" width="150" height="45" as="geometry" />
        </mxCell>
        <mxCell id="wmgBXDKQRaq-loNeCHvl-26" value="" style="endArrow=classic;startArrow=classic;html=1;rounded=0;" parent="1" edge="1">
          <mxGeometry width="50" height="50" relative="1" as="geometry">
            <mxPoint x="214.5" y="593" as="sourcePoint" />
            <mxPoint x="215" y="548" as="targetPoint" />
          </mxGeometry>
        </mxCell>
        <mxCell id="wmgBXDKQRaq-loNeCHvl-27" value="&lt;font style=&quot;font-size: 18px;&quot;&gt;ESP32主控模块&lt;/font&gt;" style="text;html=1;align=center;verticalAlign=middle;whiteSpace=wrap;rounded=0;" parent="1" vertex="1">
          <mxGeometry x="135" y="454" width="160" height="30" as="geometry" />
        </mxCell>
        <mxCell id="wmgBXDKQRaq-loNeCHvl-28" value="&lt;font style=&quot;font-size: 18px;&quot;&gt;数据处理&lt;/font&gt;" style="rounded=1;whiteSpace=wrap;html=1;" parent="1" vertex="1">
          <mxGeometry x="-65" y="484" width="150" height="45" as="geometry" />
        </mxCell>
        <mxCell id="wmgBXDKQRaq-loNeCHvl-29" value="&lt;font style=&quot;font-size: 18px;&quot;&gt;指令下发&lt;/font&gt;" style="rounded=1;whiteSpace=wrap;html=1;" parent="1" vertex="1">
          <mxGeometry x="350" y="484" width="150" height="45" as="geometry" />
        </mxCell>
        <mxCell id="wmgBXDKQRaq-loNeCHvl-30" value="&lt;font style=&quot;font-size: 18px;&quot;&gt;MQTT消息上报&lt;/font&gt;" style="rounded=1;whiteSpace=wrap;html=1;" parent="1" vertex="1">
          <mxGeometry x="145" y="485" width="150" height="45" as="geometry" />
        </mxCell>
        <mxCell id="wmgBXDKQRaq-loNeCHvl-31" value="&lt;font style=&quot;font-size: 18px;&quot;&gt;OneNET物联网云平台&lt;/font&gt;" style="text;html=1;align=center;verticalAlign=middle;whiteSpace=wrap;rounded=0;" parent="1" vertex="1">
          <mxGeometry x="120" y="310" width="200" height="30" as="geometry" />
        </mxCell>
        <mxCell id="wmgBXDKQRaq-loNeCHvl-32" value="&lt;font style=&quot;font-size: 18px;&quot;&gt;MQTT服务器&lt;/font&gt;" style="rounded=1;whiteSpace=wrap;html=1;" parent="1" vertex="1">
          <mxGeometry x="-68" y="341" width="150" height="45" as="geometry" />
        </mxCell>
        <mxCell id="wmgBXDKQRaq-loNeCHvl-33" value="&lt;font style=&quot;font-size: 18px;&quot;&gt;数据转发&lt;/font&gt;" style="rounded=1;whiteSpace=wrap;html=1;" parent="1" vertex="1">
          <mxGeometry x="350" y="340" width="150" height="45" as="geometry" />
        </mxCell>
        <mxCell id="wmgBXDKQRaq-loNeCHvl-34" value="&lt;font style=&quot;font-size: 18px;&quot;&gt;物模型数据存储&lt;/font&gt;" style="rounded=1;whiteSpace=wrap;html=1;" parent="1" vertex="1">
          <mxGeometry x="144" y="341" width="150" height="45" as="geometry" />
        </mxCell>
        <mxCell id="wmgBXDKQRaq-loNeCHvl-36" value="&lt;font style=&quot;font-size: 18px;&quot;&gt;Web服务器&lt;/font&gt;" style="rounded=1;whiteSpace=wrap;html=1;" parent="1" vertex="1">
          <mxGeometry x="-119" y="190.5" width="150" height="45" as="geometry" />
        </mxCell>
        <mxCell id="wmgBXDKQRaq-loNeCHvl-39" value="&lt;font style=&quot;font-size: 18px;&quot;&gt;MySQL数据库&lt;/font&gt;" style="rounded=1;whiteSpace=wrap;html=1;" parent="1" vertex="1">
          <mxGeometry x="51" y="190.75" width="150" height="45" as="geometry" />
        </mxCell>
        <mxCell id="wmgBXDKQRaq-loNeCHvl-40" value="&lt;font style=&quot;font-size: 18px;&quot;&gt;Redis缓存&lt;/font&gt;" style="rounded=1;whiteSpace=wrap;html=1;" parent="1" vertex="1">
          <mxGeometry x="393" y="191" width="150" height="45" as="geometry" />
        </mxCell>
        <mxCell id="wmgBXDKQRaq-loNeCHvl-42" value="&lt;font style=&quot;font-size: 18px;&quot;&gt;可视化展示&lt;/font&gt;" style="rounded=1;whiteSpace=wrap;html=1;" parent="1" vertex="1">
          <mxGeometry x="-65" width="150" height="45" as="geometry" />
        </mxCell>
        <mxCell id="wmgBXDKQRaq-loNeCHvl-43" value="&lt;font style=&quot;font-size: 18px;&quot;&gt;预警管理&lt;/font&gt;" style="rounded=1;whiteSpace=wrap;html=1;" parent="1" vertex="1">
          <mxGeometry x="-65" y="60" width="150" height="45" as="geometry" />
        </mxCell>
        <mxCell id="wmgBXDKQRaq-loNeCHvl-44" value="&lt;font style=&quot;font-size: 18px;&quot;&gt;设备管理&lt;/font&gt;" style="rounded=1;whiteSpace=wrap;html=1;" parent="1" vertex="1">
          <mxGeometry x="140" width="150" height="45" as="geometry" />
        </mxCell>
        <mxCell id="wmgBXDKQRaq-loNeCHvl-45" value="&lt;font style=&quot;font-size: 18px;&quot;&gt;数据管理&lt;/font&gt;" style="rounded=1;whiteSpace=wrap;html=1;" parent="1" vertex="1">
          <mxGeometry x="140" y="60" width="150" height="45" as="geometry" />
        </mxCell>
        <mxCell id="wmgBXDKQRaq-loNeCHvl-47" value="&lt;font style=&quot;font-size: 18px;&quot;&gt;WebSocket推送&lt;/font&gt;" style="rounded=1;whiteSpace=wrap;html=1;" parent="1" vertex="1">
          <mxGeometry x="224" y="192.25" width="150" height="42.5" as="geometry" />
        </mxCell>
        <mxCell id="wmgBXDKQRaq-loNeCHvl-48" value="&lt;font style=&quot;font-size: 18px;&quot;&gt;系统管理&lt;/font&gt;" style="rounded=1;whiteSpace=wrap;html=1;" parent="1" vertex="1">
          <mxGeometry x="360" width="150" height="45" as="geometry" />
        </mxCell>
        <mxCell id="wmgBXDKQRaq-loNeCHvl-49" value="&lt;font style=&quot;font-size: 18px;&quot;&gt;日志管理&lt;/font&gt;" style="rounded=1;whiteSpace=wrap;html=1;" parent="1" vertex="1">
          <mxGeometry x="360" y="60" width="150" height="45" as="geometry" />
        </mxCell>
        <mxCell id="wmgBXDKQRaq-loNeCHvl-52" value="" style="endArrow=classic;startArrow=classic;html=1;rounded=0;" parent="1" edge="1">
          <mxGeometry width="50" height="50" relative="1" as="geometry">
            <mxPoint x="215" y="444" as="sourcePoint" />
            <mxPoint x="215.5" y="399" as="targetPoint" />
          </mxGeometry>
        </mxCell>
        <mxCell id="wmgBXDKQRaq-loNeCHvl-54" value="" style="endArrow=classic;startArrow=classic;html=1;rounded=0;" parent="1" edge="1">
          <mxGeometry width="50" height="50" relative="1" as="geometry">
            <mxPoint x="214.5" y="305" as="sourcePoint" />
            <mxPoint x="215" y="260" as="targetPoint" />
          </mxGeometry>
        </mxCell>
        <mxCell id="wmgBXDKQRaq-loNeCHvl-57" value="" style="endArrow=classic;startArrow=classic;html=1;rounded=0;" parent="1" edge="1">
          <mxGeometry width="50" height="50" relative="1" as="geometry">
            <mxPoint x="214.5" y="165" as="sourcePoint" />
            <mxPoint x="215" y="120" as="targetPoint" />
          </mxGeometry>
        </mxCell>
      </root>
    </mxGraphModel>
  </diagram>
</mxfile>
